<!-- icon666.com - MILLIONS vector ICONS FREE --><svg id="Layer_1" enable-background="new 0 0 512 512" viewBox="0 0 512 512" xmlns="http://www.w3.org/2000/svg" xmlns:xlink="http://www.w3.org/1999/xlink"><linearGradient id="SVGID_1_" gradientUnits="userSpaceOnUse" x1="284.54" x2="225.515" y1="277.527" y2="243.449"><stop offset="0" stop-color="#ff0f7b"></stop><stop offset="1" stop-color="#ff930f"></stop></linearGradient><g><path d="m246.33 303.42c-2.81 0-5.64-.39-8.39-1.17-2.93-.82-5.55-2.34-7.8-4.52-2.22-2.14-4-5.02-5.3-8.55-1.27-3.45-1.91-7.91-1.91-13.26 0-4.61.58-9.37 1.73-14.16 1.12-4.7 2.57-9.4 4.29-13.97 1.71-4.55 3.66-8.97 5.77-13.14 1.98-3.91 3.96-7.59 5.89-10.95.5-3.1.98-5.58 1.44-7.38.53-2.13 1.16-3.7 1.93-4.82.93-1.34 2.06-2.2 3.35-2.55.94-.26 2.01-.38 3.29-.38h.35l.34.1c4.67 1.33 8.45 2.7 11.25 4.06 2.77 1.35 5.69 3.05 8.69 5.05 3.06 2.04 5.93 4.46 8.53 7.19 2.63 2.78 4.84 5.93 6.58 9.39 1.8 3.6 2.71 7.59 2.71 11.86 0 7.42-.54 13.83-1.61 19.06-1.07 5.22-2.33 9.61-3.75 13.05-1.45 3.52-3.7 7.23-6.69 11.04l-.16.21-.2.17c-4.01 3.34-7.45 5.83-10.24 7.39-2.76 1.55-5.87 2.98-9.22 4.26-3.54 1.34-7.19 2.02-10.87 2.02zm3.96-89.84c-.82.02-1.34.12-1.64.2-.01 0-.21.08-.56.58-.23.33-.7 1.2-1.19 3.18-.44 1.75-.92 4.24-1.42 7.41l-.07.46-.23.4c-1.95 3.38-3.97 7.12-5.99 11.11-2.04 4.01-3.91 8.26-5.55 12.64-1.65 4.38-3.03 8.87-4.11 13.37-1.06 4.41-1.59 8.78-1.59 12.99 0 4.76.54 8.64 1.6 11.54 1.04 2.82 2.41 5.07 4.08 6.68 1.67 1.62 3.53 2.69 5.68 3.3 5.33 1.5 10.9 1.27 16.11-.71 3.13-1.19 6-2.51 8.55-3.95 2.48-1.39 5.6-3.64 9.28-6.7 2.63-3.38 4.59-6.62 5.84-9.65 1.3-3.15 2.47-7.24 3.48-12.15 1-4.9 1.51-10.97 1.51-18.05 0-3.49-.73-6.73-2.18-9.62-1.51-3.01-3.44-5.77-5.73-8.19-2.34-2.46-4.92-4.64-7.68-6.48-2.81-1.88-5.54-3.46-8.11-4.72-2.46-1.19-5.85-2.42-10.08-3.64zm-1.03 66.99c-5.79 0-9.9-1.67-12.21-4.97-2.11-3.01-3.19-6.78-3.19-11.2 0-2.54.39-5.38 1.15-8.42.73-2.91 1.57-5.78 2.5-8.5.97-2.84 2.63-6.28 5.09-10.5l.72-1.25h1.44c3.16 0 6.69.75 10.48 2.22 3.7 1.44 7.28 3.42 10.63 5.88 3.33 2.45 6.34 5.25 8.93 8.31 2.71 3.21 4.53 6.61 5.4 10.09l.2.82-.33.77c-.54 1.25-1.74 2.75-3.79 4.72-1.87 1.8-4.24 3.61-7.04 5.39-2.8 1.77-5.94 3.33-9.34 4.62-3.5 1.34-7.09 2.02-10.64 2.02zm-3.08-39.78c-1.86 3.31-3.18 6.09-3.93 8.3-.89 2.6-1.69 5.32-2.38 8.1-.66 2.65-1 5.07-1 7.21 0 3.37.77 6.17 2.28 8.33 1.32 1.89 4.05 2.84 8.11 2.84 2.94 0 5.93-.57 8.88-1.69 3.08-1.17 5.92-2.57 8.44-4.17 2.51-1.59 4.62-3.2 6.25-4.77 1.23-1.18 1.9-1.97 2.26-2.46-.77-2.41-2.14-4.8-4.1-7.12-2.34-2.76-5.05-5.29-8.07-7.51-3-2.2-6.19-3.97-9.48-5.25-2.63-1.02-5.07-1.62-7.26-1.81z" fill="url(#SVGID_1_)" style="fill: rgb(0, 0, 0);"></path></g></svg>